<svg id="Layer_1" data-name="Layer 1" xmlns="http://www.w3.org/2000/svg" width="229.75" height="132.84" viewBox="0 0 229.75 132.84"><defs><style>.cls-1,.cls-2{fill:#104e9d;}.cls-1,.cls-5{stroke:#fff;stroke-width:0.49px;}.cls-3{fill:#e7bf03;}.cls-4,.cls-5{fill:none;}</style></defs><title>maestro-logo</title><path class="cls-1" d="M154.17,51.73a2.49,2.49,0,0,0-1.23.73l-0.94.91q-1.18,1.15-2.38,2.19t-2.68,2.09c-0.53.37-1.1,0.74-1.71,1.09a16.55,16.55,0,0,1-1.88.95,13.35,13.35,0,0,1-2,.67,8.14,8.14,0,0,1-2,.26,4.22,4.22,0,0,1-2.79-.85,3.08,3.08,0,0,1-1-2.49,23.81,23.81,0,0,0,2.2-1.55l1.66-1.34a26.33,26.33,0,0,0,2-1.8,10.52,10.52,0,0,0,1.35-1.62,5.79,5.79,0,0,0,.73-1.54,4.75,4.75,0,0,0,.18-1.53,3.12,3.12,0,0,0-.32-1.27,5.05,5.05,0,0,0-.77-1.11,1.26,1.26,0,0,0-.42-0.31,3.78,3.78,0,0,0-.54-0.21,3.62,3.62,0,0,0-.52-0.12l-0.38,0a4.92,4.92,0,0,0-1.14.2,5.82,5.82,0,0,0-1.1.46,7.56,7.56,0,0,0-1.86,1.44,14.16,14.16,0,0,0-2.88,4.82,16,16,0,0,0-.84,5.15,6.54,6.54,0,0,0,1.54,4.75,5.76,5.76,0,0,0,4.32,1.57,9.38,9.38,0,0,0,2.67-.37,14.84,14.84,0,0,0,2.77-1.11A22,22,0,0,0,147,60a32,32,0,0,0,2.62-2.13A30.5,30.5,0,0,0,152,55.48a31.35,31.35,0,0,0,2-2.54,2.24,2.24,0,0,0,.38-0.9C154.37,51.83,154.3,51.73,154.17,51.73Zm-18.4,2.2c0.07-.32.14-0.63,0.23-1s0.18-.64.28-0.95a5.33,5.33,0,0,1,.34-0.84,11.79,11.79,0,0,1,1.74-2.75,2.76,2.76,0,0,1,1.84-1.09,0.61,0.61,0,0,1,.36.11,1,1,0,0,1,.28.3,1.49,1.49,0,0,1,.18.43,2.93,2.93,0,0,1,.08.5,2.51,2.51,0,0,1-.19,1,4.53,4.53,0,0,1-.56,1,8.41,8.41,0,0,1-.79.9c-0.29.29-.57,0.56-0.85,0.8a17.91,17.91,0,0,1-1.43,1.15l-1.67,1.22C135.65,54.52,135.71,54.24,135.77,53.92Z" transform="translate(-0.13 9.09)"/><path class="cls-2" d="M110,92.29h0.32c0.82,0,1.17-.34,1.17-1.62V81c0-1.28-.36-1.62-1.17-1.62H110V78.8c0.62,0,1.48.06,2.28,0.06,1.42,0,2.87-.06,4.29-0.06,4.8,0,6.5,4.35,6.5,6.9,0,2.89-1.71,7.18-7.15,7.18-1.08,0-2.37-.06-3.63-0.06-0.8,0-1.65,0-2.28.06v-0.6m3.06-2c0,1.54.57,1.8,2.6,1.8,3.12,0,5.7-1.5,5.7-5.92,0-2.89-1.62-6.74-6-6.74a22.21,22.21,0,0,0-2.26.16v10.7Z" transform="translate(-0.13 9.09)"/><path class="cls-2" d="M124.85,92.29h0.32c0.82,0,1.18-.34,1.18-1.62V81c0-1.28-.36-1.62-1.18-1.62h-0.32V78.8c0.57,0,2.6.06,4.38,0.06,2.1,0,2.94,0,4.18-.06,0,1.23.07,2.29,0.16,3.36h-0.5c-0.18-1.38-.3-2.61-3.46-2.61h-1.71v5.6h1.55c2.17,0,2.24-.41,2.28-1.58h0.5c0,0.46,0,1.07,0,1.94s0,1.41,0,1.8h-0.5c-0.09-1-.11-1.4-2.12-1.4h-1.71v4.75c0,1.19.39,1.48,1.53,1.48h0.48c3,0,3.77-.63,4.06-2.83h0.49c-0.12,1.23-.23,2.37-0.35,3.58-1.07,0-3-.06-4.89-0.06-2.21,0-3.81,0-4.38.06V92.29" transform="translate(-0.13 9.09)"/><path class="cls-2" d="M136,92.29h0.29c0.94,0,1.1-.43,1.15-2.51,0.07-2.61.11-6.37,0.11-8.66,0-1.42-.39-1.72-1.28-1.72h-0.5V78.8c0.48,0,1,.06,1.57.06s1,0,1.4-.06l8.38,11.45h0l-0.11-8.11c0-2.28-.3-2.75-1.27-2.75h-0.21V78.8c0.55,0,1.27.06,1.92,0.06s1.28,0,1.92-.06v0.59h-0.29c-0.55,0-1.07.22-1.12,2.14l-0.32,11.53H147.2l-8.83-12h0c0,3.07,0,6.11.11,9.18,0,1.62.32,2.08,1.16,2.08H140v0.59c-0.59,0-1.3-.06-2-0.06s-1.4,0-2,.06V92.29" transform="translate(-0.13 9.09)"/><path class="cls-2" d="M153.5,92.29h0.41c1,0,1.14-.26,1.14-1.88V79.63h-2c-1.9,0-2.14,1.23-2.24,2.77h-0.61V78.8c0.54,0,3.35.06,5.66,0.06,2.14,0,5.05,0,5.65-.06v3.6h-0.6c-0.1-1.54-.34-2.77-2.24-2.77h-2.23V90.41c0.2,1.62.38,1.88,1.34,1.88h0.41v0.59c-0.68,0-1.44-.06-2.33-0.06s-1.66,0-2.33.06V92.29" transform="translate(-0.13 9.09)"/><path class="cls-2" d="M162.46,92.29h0.32c0.82,0,1.18-.34,1.18-1.62V81c0-1.28-.35-1.62-1.18-1.62h-0.32V78.8c0.62,0,1.47.06,2.28,0.06s1.53,0,2.28-.06v0.59h-0.32c-0.82,0-1.17.34-1.37,1.62v9.65c0.2,1.28.56,1.62,1.37,1.62H167v0.59c-0.75,0-1.5-.06-2.28-0.06s-1.66,0-2.28.06V92.29" transform="translate(-0.13 9.09)"/><path class="cls-2" d="M176.07,82.4h-0.6a2.82,2.82,0,0,0-2.85-3.11,2.29,2.29,0,0,0-2.42,2.33c0,1.15.53,2,2,2.71l1.64,0.83a4.13,4.13,0,0,1,2.65,3.7c0,2.47-1.46,4.27-4.43,4.27a10.59,10.59,0,0,1-3.18-.49l-0.07-3.24h0.54a3.16,3.16,0,0,0,3,3.06,2.69,2.69,0,0,0,2.85-2.69c0-1.74-1.43-2.41-2.42-2.95l-1.72-1a3.75,3.75,0,0,1-2.29-3.4,3.85,3.85,0,0,1,4-3.88,16,16,0,0,1,3.33.54V82.4" transform="translate(-0.13 9.09)"/><path class="cls-2" d="M181.2,92.29h0.41c1,0,1.14-.26,1.14-1.88V79.63h-2c-1.9,0-2.13,1.23-2.24,2.77h-0.6V78.8c0.53,0,3.34.06,5.66,0.06,2.14,0,5.05,0,5.66-.06v3.6h-0.61c-0.11-1.54-.34-2.77-2.24-2.77h-2.23V90.41c0.2,1.62.38,1.88,1.34,1.88h0.41v0.59c-0.68,0-1.44-.06-2.33-0.06s-1.66,0-2.33.06V92.29" transform="translate(-0.13 9.09)"/><path class="cls-2" d="M190.15,92.29h0.32c0.82,0,1.18-.34,1.18-1.62V81c0-1.28-.35-1.62-1.18-1.62h-0.32V78.8c0.62,0,1.48.06,2.28,0.06,1.2,0,2-.06,2.83-0.06A3.59,3.59,0,0,1,199,82.46a3.67,3.67,0,0,1-2.72,3.7l2.58,4.39c1,1.78,1.27,1.9,2.7,2V93l-1,0c-1.57,0-2.3-.22-3.24-1.94l-2.08-3.78c-0.41-.73-0.64-0.77-2-0.81v3.74c0,1.88.3,2.1,1,2.1h0.51v0.59c-0.78,0-1.53-.06-2.31-0.06s-1.65,0-2.28.06V92.29M193,85.57a5,5,0,0,0,1.41.14,2.64,2.64,0,0,0,2.92-2.87c0-.87-1.06-3.28-3-3.28a9.31,9.31,0,0,0-1.12.08Z" transform="translate(-0.13 9.09)"/><path class="cls-2" d="M203.86,92.29h0.43c0.89,0,1.09-.38,1.09-1.4V87.76L202,81c-0.69-1.38-.93-1.56-1.8-1.56H200V78.8c0.76,0,1.51.06,2.24,0.06s1.51,0,2.26-.06v0.59h-0.32a0.57,0.57,0,0,0-.66.64,3.46,3.46,0,0,0,.39,1.17l2.44,5.28L209,81.25a4.8,4.8,0,0,0,.48-1.41c0-.34-0.21-0.46-0.69-0.46h-0.34V78.8c0.73,0,1.21.06,1.76,0.06s1.19,0,1.76-.06v0.59h-0.45c-0.73,0-.89.26-1.44,1.41l-3.15,6.55v3.54c0,1.16.39,1.4,1.08,1.4h0.36v0.59c-0.75,0-1.51-.06-2.26-0.06s-1.6,0-2.26.06V92.29" transform="translate(-0.13 9.09)"/><path class="cls-3" d="M77.76,7.35S76.58,9,71.58,9,47.8,2.4,35.15,2.4C8.19,2.4,4,14.79,4,29.91S20.76,72.49,22.59,85.06c0,0,1.21-6.82-2.66-15.48C17.6,64.37,6.69,40.66,6.69,29.37c0-8.56,1-25.14,28.46-25.14,18,0,37.57,10.78,42.61,3.12" transform="translate(-0.13 9.09)"/><path class="cls-3" d="M58,16a73.42,73.42,0,0,0,20-3.83c10.32-3.46,23.14-8.75,33.12-8.75,16.64,0,19.85,9.83,19.85,20.95,0,6.56-3.81,14.32-6.31,19.42,0,0,4.32-15,4.32-19.42,0-12.21-4.87-18.76-18-18.76C93.47,5.61,75.33,18.72,58,16" transform="translate(-0.13 9.09)"/><rect class="cls-4" width="229.75" height="132.84"/><path class="cls-3" d="M82.73,85c-0.29-11.13-3.43-32.12-3.43-32.12s6.42-17.84,6.42-29c0-2.57-.57-8-2.43-8-4.85,0-7.42,25.12-7.42,29.12s0.57,11.85.57,11.85-12,34.54-28,34.54c-10.85,0-19.13-12.71-19.13-29.12,0-5.85,1.57-23.55,12.42-23.55,11.56,0,22.12,21.41,22.12,21.41l7.71-7.85-0.71-1.57s-2.43,3-4.14,3c-3.14,0-10.28-19.13-21.7-19.13S27.21,50.21,27.21,64.06c0,12.56,5,33.26,18.84,33.26,16.41,0,30.55-37.4,30.55-37.4,3.71,25.69,2.71,36.83,2.71,36.83L99.15,51.36c-2.43,11-4.57,46.1-4.57,46.1l8.71-6.56V89.32s-1.43,1.71-3,1.71c-3.14,0-1-15.27,1.86-38.54s10.56-26.12,10.56-26.12V21.67c-5.57,4.57-30,63.37-30,63.37M81.59,22c0.86,0,1.71,1.43,1.71,4.85,0,8.28-4.14,22.26-4.14,22.26C78.45,36.08,79.74,22,81.59,22Z" transform="translate(-0.13 9.09)"/><path class="cls-3" d="M103.74,75.21s40-14,118.53-2c0,0-73.77-5.67-118.53,2" transform="translate(-0.13 9.09)"/><path class="cls-1" d="M135.1,51.51a0.66,0.66,0,0,0-.33.19c-0.15.13-.31,0.28-0.46,0.44l-0.45.49-0.3.35q-1.1,1.12-2.23,2.1a21.22,21.22,0,0,1-2.27,1.74A12,12,0,0,1,126.82,58a6,6,0,0,1-2.17.43,2.17,2.17,0,0,1-1.15-.31,3,3,0,0,1-.87-0.8,3.73,3.73,0,0,1-.55-1.09,3.78,3.78,0,0,1-.19-1.17,8.18,8.18,0,0,1,.23-2q0.24-1,.51-2.12a5.71,5.71,0,0,0,.26-1.49,1.87,1.87,0,0,0-.12-0.56,4.82,4.82,0,0,0-.3-0.71,5.06,5.06,0,0,0-.39-0.64,1.61,1.61,0,0,0-.36-0.39,2.6,2.6,0,0,0-.7-0.28,5.78,5.78,0,0,0-.78-0.13,7.71,7.71,0,0,0-.81,0h-0.77a4.44,4.44,0,0,0-1.67.39,11.89,11.89,0,0,0-1.91,1,15.73,15.73,0,0,0-1.88,1.44,13.94,13.94,0,0,0-1.57,1.61c-0.42.52-.84,1.11-1.28,1.78a18.2,18.2,0,0,0-1.18,2.1,14.11,14.11,0,0,0-.86,2.27,8.36,8.36,0,0,0-.33,2.28,5.62,5.62,0,0,0,.17,1.27,5.28,5.28,0,0,0,.5,1.34,3.64,3.64,0,0,0,.85,1.06,1.85,1.85,0,0,0,1.22.43,4.32,4.32,0,0,0,1.05-.14,9,9,0,0,0,1.16-.37,11.93,11.93,0,0,0,1.11-.5c0.35-.18.66-0.35,0.91-0.51a15.44,15.44,0,0,0,1.32-1c0.43-.35.84-0.71,1.24-1.08s0.79-.74,1.16-1.11L119.74,58a3.83,3.83,0,0,0,.59,1.3,4.47,4.47,0,0,0,1,1,4.63,4.63,0,0,0,1.23.65,3.92,3.92,0,0,0,1.29.23,7.5,7.5,0,0,0,2.58-.39,11.12,11.12,0,0,0,2.28-1.11,17.26,17.26,0,0,0,2.13-1.6l2.11-1.87c0.21-.18.41-0.37,0.6-0.57l0.53-.57,0.44-.5,0.3-.36a1.69,1.69,0,0,0,.24-0.41c0.08-.17.14-0.36,0.21-0.55a4.11,4.11,0,0,0,.15-0.57,2.61,2.61,0,0,0,.05-0.48C135.47,51.74,135.35,51.51,135.1,51.51Zm-16.46,4.38a11.8,11.8,0,0,1-2.27,2.71,10.49,10.49,0,0,1-3,1.85,5.51,5.51,0,0,1-2,.49,0.52,0.52,0,0,1-.41-0.19,1.39,1.39,0,0,1-.26-0.45,3,3,0,0,1-.14-0.54,3.09,3.09,0,0,1,0-.45,5.17,5.17,0,0,1,.17-1.24,11.33,11.33,0,0,1,.47-1.42,16,16,0,0,1,.7-1.49q0.4-.75.82-1.44a15.19,15.19,0,0,1,.87-1.26,9.12,9.12,0,0,1,.84-1c0.31-.32.63-0.62,1-0.9a7.68,7.68,0,0,1,1-.76,5.29,5.29,0,0,1,1.1-.52,3.73,3.73,0,0,1,1.17-.18h0.56a0.55,0.55,0,0,1,.47.26,1.41,1.41,0,0,1,.22.69c0,0.28,0,.52,0,0.71A10.13,10.13,0,0,1,118.65,55.88Z" transform="translate(-0.13 9.09)"/><path class="cls-2" d="M140.57,47.47a0.59,0.59,0,0,0-.36-0.11,2.79,2.79,0,0,0-1.86,1.08,12,12,0,0,0-1.72,2.74,6.39,6.39,0,0,0-.34.84c-0.1.31-.2,0.62-0.28,1s-0.16.64-.23,1-0.11.61-.16,0.85l1.68-1.22a17.13,17.13,0,0,0,1.41-1.15c0.28-.25.57-0.53,0.85-0.8a8,8,0,0,0,.79-0.9,4.66,4.66,0,0,0,.57-1,2.89,2.89,0,0,0,.2-1c0-.16,0-0.33-0.08-0.49a2.09,2.09,0,0,0-.18-0.43A1,1,0,0,0,140.57,47.47Zm-1.2,13.14a8.26,8.26,0,0,0,2-.26,14.81,14.81,0,0,0,2-.66,17,17,0,0,0,1.89-1c0.61-.36,1.18-0.72,1.71-1.08,1-.71,1.87-1.4,2.68-2.09s1.59-1.43,2.38-2.2l0.94-.9a2.42,2.42,0,0,1,1.23-.74c0.13,0,.21.11,0.21,0.33a2.5,2.5,0,0,1-.38.9c-0.61.84-1.28,1.68-2,2.53a29.82,29.82,0,0,1-2.38,2.4A29.07,29.07,0,0,1,147,60a22.87,22.87,0,0,1-2.76,1.71,14.34,14.34,0,0,1-2.78,1.1,9.05,9.05,0,0,1-2.66.38,5.75,5.75,0,0,1-4.32-1.58,6.48,6.48,0,0,1-1.54-4.75,15.8,15.8,0,0,1,.85-5.16,14.09,14.09,0,0,1,2.87-4.81,7.86,7.86,0,0,1,.85-0.77,6.57,6.57,0,0,1,1-.66,5.79,5.79,0,0,1,1.1-.46,4.56,4.56,0,0,1,1.13-.2,1.67,1.67,0,0,1,.38,0,2.17,2.17,0,0,1,.53.11,3.1,3.1,0,0,1,.54.21,1,1,0,0,1,.41.31,5,5,0,0,1,.79,1.12,3.19,3.19,0,0,1,.31,1.26,4.87,4.87,0,0,1-.18,1.53,6.49,6.49,0,0,1-.72,1.54,12.26,12.26,0,0,1-1.35,1.61,26.51,26.51,0,0,1-2,1.81c-0.49.41-1.05,0.85-1.66,1.35a23.74,23.74,0,0,1-2.2,1.54,3.11,3.11,0,0,0,1,2.5A4.26,4.26,0,0,0,139.37,60.61Z" transform="translate(-0.13 9.09)"/><path class="cls-5" d="M154.38,52.05a2.5,2.5,0,0,1-.38.9c-0.61.84-1.28,1.68-2,2.53a29.82,29.82,0,0,1-2.38,2.4A29.07,29.07,0,0,1,147,60a22.87,22.87,0,0,1-2.76,1.71,14.34,14.34,0,0,1-2.78,1.1,9.05,9.05,0,0,1-2.66.38,5.75,5.75,0,0,1-4.32-1.58,6.48,6.48,0,0,1-1.54-4.75,15.8,15.8,0,0,1,.85-5.16,14.09,14.09,0,0,1,2.87-4.81,7.86,7.86,0,0,1,.85-0.77,6.57,6.57,0,0,1,1-.66,5.79,5.79,0,0,1,1.1-.46,4.56,4.56,0,0,1,1.13-.2,1.67,1.67,0,0,1,.38,0,2.17,2.17,0,0,1,.53.11,3.1,3.1,0,0,1,.54.21,1,1,0,0,1,.41.31,5,5,0,0,1,.79,1.12,3.19,3.19,0,0,1,.31,1.26,4.87,4.87,0,0,1-.18,1.53,6.49,6.49,0,0,1-.72,1.54,12.26,12.26,0,0,1-1.35,1.61,26.51,26.51,0,0,1-2,1.81c-0.49.41-1.05,0.85-1.66,1.35a23.74,23.74,0,0,1-2.2,1.54,3.11,3.11,0,0,0,1,2.5,4.26,4.26,0,0,0,2.79.85,8.26,8.26,0,0,0,2-.26,14.81,14.81,0,0,0,2-.66,17,17,0,0,0,1.89-1c0.61-.36,1.18-0.72,1.71-1.08,1-.71,1.87-1.4,2.68-2.09s1.59-1.43,2.38-2.2l0.94-.9a2.42,2.42,0,0,1,1.23-.74C154.3,51.72,154.38,51.84,154.38,52.05Z" transform="translate(-0.13 9.09)"/><path class="cls-5" d="M141.11,48.69c0-.16,0-0.33-0.08-0.49a2.09,2.09,0,0,0-.18-0.43,1,1,0,0,0-.28-0.3,0.59,0.59,0,0,0-.36-0.11,2.79,2.79,0,0,0-1.86,1.08,12,12,0,0,0-1.72,2.74,6.39,6.39,0,0,0-.34.84c-0.1.31-.2,0.62-0.28,1s-0.16.64-.23,1-0.11.61-.16,0.85l1.68-1.22a17.13,17.13,0,0,0,1.41-1.15c0.28-.25.57-0.53,0.85-0.8a8,8,0,0,0,.79-0.9,4.66,4.66,0,0,0,.57-1A2.89,2.89,0,0,0,141.11,48.69Z" transform="translate(-0.13 9.09)"/><path class="cls-2" d="M169.81,51.25a1.33,1.33,0,0,1-.16.57,3.89,3.89,0,0,1-.42.66,8.57,8.57,0,0,1-.59.69l-0.66.69c-0.17.18-.36,0.37-0.56,0.56l-0.67.63-0.88.81-1.18,1.07q-0.61.55-1.35,1.15t-1.5,1.19l-1.47,1.12-1.23.94-2.38,1.8q-1.13.85-2.22,1.53A7.23,7.23,0,0,1,151.11,66a3,3,0,0,1-1-.21,0.7,0.7,0,0,1-.59-0.58,1.9,1.9,0,0,1,.85-1.65A13.14,13.14,0,0,1,153,62.34a11.82,11.82,0,0,0,2.61-1.26,2,2,0,0,0,.87-1.68,5.46,5.46,0,0,0-1.2-2.17q-0.59-.82-1.05-1.51c-0.31-.46-0.57-0.87-0.79-1.24a4.65,4.65,0,0,1-.66-2.38,6.71,6.71,0,0,1,.43-2.28,5.2,5.2,0,0,1,.67-1.37,8.19,8.19,0,0,1,1-1.23,5.31,5.31,0,0,1,1.1-.86,1.85,1.85,0,0,1,1-.31,1.42,1.42,0,0,1,1.53,1.68,2,2,0,0,1-.5,1.26,6.2,6.2,0,0,1-.59.61q-0.35.32-.8,0.67c-0.29.23-.54,0.43-0.74,0.6l-0.49.44a4.63,4.63,0,0,0,.56,2c0.2,0.37.42,0.77,0.68,1.2s0.55,0.9.89,1.39,0.62,0.94.85,1.33,0.4,0.68.52,0.86a0.18,0.18,0,0,0,.19.06,2.18,2.18,0,0,0,.84-0.33c0.4-.22.87-0.52,1.42-0.89s1.15-.8,1.8-1.29,1.29-1,1.94-1.56,1.23-1.05,1.67-1.47l1.25-1.18q0.59-.55.88-0.85a1.57,1.57,0,0,1,.32-0.3,0.42,0.42,0,0,1,.26.1,1,1,0,0,1,.22.25,1.41,1.41,0,0,1,.15.32,1.1,1.1,0,0,1,.05.32" transform="translate(-0.13 9.09)"/><path class="cls-1" d="M169.81,51.25a1.33,1.33,0,0,1-.16.57,3.89,3.89,0,0,1-.42.66,8.57,8.57,0,0,1-.59.69l-0.66.69c-0.17.18-.36,0.37-0.56,0.56l-0.67.63-0.88.81-1.18,1.07q-0.61.55-1.35,1.15t-1.5,1.19l-1.47,1.12-1.23.94-2.38,1.8q-1.13.85-2.22,1.53A7.23,7.23,0,0,1,151.11,66a3,3,0,0,1-1-.21,0.7,0.7,0,0,1-.59-0.58,1.9,1.9,0,0,1,.85-1.65A13.14,13.14,0,0,1,153,62.34a11.82,11.82,0,0,0,2.61-1.26,2,2,0,0,0,.87-1.68,5.46,5.46,0,0,0-1.2-2.17q-0.59-.82-1.05-1.51c-0.31-.46-0.57-0.87-0.79-1.24a4.65,4.65,0,0,1-.66-2.38,6.71,6.71,0,0,1,.43-2.28,5.2,5.2,0,0,1,.67-1.37,8.19,8.19,0,0,1,1-1.23,5.31,5.31,0,0,1,1.1-.86,1.85,1.85,0,0,1,1-.31,1.42,1.42,0,0,1,1.53,1.68,2,2,0,0,1-.5,1.26,6.2,6.2,0,0,1-.59.61q-0.35.32-.8,0.67c-0.29.23-.54,0.43-0.74,0.6l-0.49.44a4.63,4.63,0,0,0,.56,2c0.2,0.37.42,0.77,0.68,1.2s0.55,0.9.89,1.39,0.62,0.94.85,1.33,0.4,0.68.52,0.86a0.18,0.18,0,0,0,.19.06,2.18,2.18,0,0,0,.84-0.33c0.4-.22.87-0.52,1.42-0.89s1.15-.8,1.8-1.29,1.29-1,1.94-1.56,1.23-1.05,1.67-1.47l1.25-1.18q0.59-.55.88-0.85a1.57,1.57,0,0,1,.32-0.3,0.42,0.42,0,0,1,.26.1,1,1,0,0,1,.22.25,1.41,1.41,0,0,1,.15.32A1.1,1.1,0,0,1,169.81,51.25Z" transform="translate(-0.13 9.09)"/><path class="cls-2" d="M181.73,48.78a0.31,0.31,0,0,0-.21-0.13,0.8,0.8,0,0,0-.31,0l-0.38.05a6.34,6.34,0,0,0-.69.13l-1,.21-1.17.23-1,.15-0.59.06c-0.47,0-.93.07-1.39,0.09l-1.47,0a0.56,0.56,0,0,1-.64-0.63,12,12,0,0,1,.4-2.24q0.4-1.67,1.23-4.24a6.1,6.1,0,0,0,.38-2,1.18,1.18,0,0,0-1.29-1.39,1.28,1.28,0,0,0-1.23.88,5.32,5.32,0,0,0-.31.93c-0.08.34-.15,0.69-0.21,1s-0.13.72-.21,1.08a9.72,9.72,0,0,1-.27,1l-0.3,1.17c-0.12.45-.24,0.93-0.36,1.42l-0.36,1.44c-0.12.47-.22,0.88-0.3,1.22a1.68,1.68,0,0,1-.21.5,0.75,0.75,0,0,1-.27.25,0.83,0.83,0,0,1-.29.09l-0.25,0-0.74,0-1.08.09-1.08.09-0.74,0h-0.64a4.53,4.53,0,0,0-.69.07,1.68,1.68,0,0,0-.55.19,0.42,0.42,0,0,0-.23.37,2.74,2.74,0,0,0,.13.94,1.15,1.15,0,0,0,.4.57,1.57,1.57,0,0,0,.7.28,6.17,6.17,0,0,0,1.06.08l0.61,0,0.88-.08,0.88-.09,0.62,0a0.8,0.8,0,0,1,.48.14,0.48,0.48,0,0,1,.2.41,2.44,2.44,0,0,1,0,.31l-0.13.63c-0.05.26-.11,0.52-0.17,0.81l-0.18.84c-0.12.54-.24,1.07-0.37,1.61h0q-0.24.92-.4,1.81a0.1,0.1,0,0,0,0,0c0,0.13,0,.42,0,0.42a11.57,11.57,0,0,0-.14,1.22,4.52,4.52,0,0,0,.11,1.15,3.63,3.63,0,0,0,.39,1,2.3,2.3,0,0,0,.63.72,1.5,1.5,0,0,0,.87.3,2.79,2.79,0,0,0,.63-0.07,3.05,3.05,0,0,0,.69-0.24,2.28,2.28,0,0,0,.56-0.37,0.65,0.65,0,0,0,.25-0.45,0.7,0.7,0,0,0-.2-0.56L171.28,62a2.27,2.27,0,0,1-.46-0.57,2,2,0,0,1-.18-1,8.44,8.44,0,0,1,.1-0.88c0.07-.41.2-1.32,0.2-1.32l0-.15c0.18-.93.42-1.85,0.69-2.78s0.53-1.91.77-2.93a5.29,5.29,0,0,1,1.05-.26c0.43-.07.9-0.13,1.42-0.18l1.56-.14h0c0.5-.07,1-0.16,1.48-0.27s1-.23,1.44-0.36a10,10,0,0,0,1.28-.46,4,4,0,0,0,.8-0.58,1.26,1.26,0,0,0,.35-1,0.62,0.62,0,0,0-.08-0.36" transform="translate(-0.13 9.09)"/><path class="cls-1" d="M181.73,48.78a0.31,0.31,0,0,0-.21-0.13,0.8,0.8,0,0,0-.31,0l-0.38.05a6.34,6.34,0,0,0-.69.13l-1,.21-1.17.23-1,.15-0.59.06c-0.47,0-.93.07-1.39,0.09l-1.47,0a0.56,0.56,0,0,1-.64-0.63,12,12,0,0,1,.4-2.24q0.4-1.67,1.23-4.24a6.1,6.1,0,0,0,.38-2,1.18,1.18,0,0,0-1.29-1.39,1.28,1.28,0,0,0-1.23.88,5.32,5.32,0,0,0-.31.93c-0.08.34-.15,0.69-0.21,1s-0.13.72-.21,1.08a9.72,9.72,0,0,1-.27,1l-0.3,1.17c-0.12.45-.24,0.93-0.36,1.42l-0.36,1.44c-0.12.47-.22,0.88-0.3,1.22a1.68,1.68,0,0,1-.21.5,0.75,0.75,0,0,1-.27.25,0.83,0.83,0,0,1-.29.09l-0.25,0-0.74,0-1.08.09-1.08.09-0.74,0h-0.64a4.53,4.53,0,0,0-.69.07,1.68,1.68,0,0,0-.55.19,0.42,0.42,0,0,0-.23.37,2.74,2.74,0,0,0,.13.94,1.15,1.15,0,0,0,.4.57,1.57,1.57,0,0,0,.7.28,6.17,6.17,0,0,0,1.06.08l0.61,0,0.88-.08,0.88-.09,0.62,0a0.8,0.8,0,0,1,.48.14,0.48,0.48,0,0,1,.2.41,2.44,2.44,0,0,1,0,.31l-0.13.63c-0.05.26-.11,0.52-0.17,0.81l-0.18.84c-0.12.54-.24,1.07-0.37,1.61h0q-0.24.92-.4,1.81a0.1,0.1,0,0,0,0,0c0,0.13,0,.42,0,0.42a11.57,11.57,0,0,0-.14,1.22,4.52,4.52,0,0,0,.11,1.15,3.63,3.63,0,0,0,.39,1,2.3,2.3,0,0,0,.63.72,1.5,1.5,0,0,0,.87.3,2.79,2.79,0,0,0,.63-0.07,3.05,3.05,0,0,0,.69-0.24,2.28,2.28,0,0,0,.56-0.37,0.65,0.65,0,0,0,.25-0.45,0.7,0.7,0,0,0-.2-0.56L171.28,62a2.27,2.27,0,0,1-.46-0.57,2,2,0,0,1-.18-1,8.44,8.44,0,0,1,.1-0.88c0.07-.41.2-1.32,0.2-1.32l0-.15c0.18-.93.42-1.85,0.69-2.78s0.53-1.91.77-2.93a5.29,5.29,0,0,1,1.05-.26c0.43-.07.9-0.13,1.42-0.18l1.56-.14h0c0.5-.07,1-0.16,1.48-0.27s1-.23,1.44-0.36a10,10,0,0,0,1.28-.46,4,4,0,0,0,.8-0.58,1.26,1.26,0,0,0,.35-1A0.62,0.62,0,0,0,181.73,48.78Z" transform="translate(-0.13 9.09)"/><path class="cls-2" d="M198,49.15c0,0.07,0,.17,0,0.3a1.62,1.62,0,0,1-.09.39,1.56,1.56,0,0,1-.16.34,0.28,0.28,0,0,1-.25.15h-0.35l-0.51,0-0.51,0h-0.35a8.35,8.35,0,0,0-5.53,2.37,18.12,18.12,0,0,0-3.75,5.65c-0.19.48-.39,1-0.58,1.5s-0.37,1.07-.55,1.64a7.6,7.6,0,0,0-.2.84,4.92,4.92,0,0,1-.2.77,0.51,0.51,0,0,1-.29.26,4.23,4.23,0,0,1-.59.23l-0.62.17a2.17,2.17,0,0,1-.4.07q-1.2.07-1.35-2.42c0-.45,0-0.86,0-1.23s0-.72,0-1.07,0.05-.7.09-1.08,0.08-.8.13-1.28,0.13-1.26.21-2,0.17-1.54.28-2.32,0.21-1.52.33-2.22a16.59,16.59,0,0,1,.37-1.75,2.77,2.77,0,0,1,.53-1.18,1.36,1.36,0,0,1,1-.42,0.89,0.89,0,0,1,.37.09,1.46,1.46,0,0,1,.37.24,1.91,1.91,0,0,1,.28.32,0.76,0.76,0,0,1,.13.3,8.26,8.26,0,0,1,0,.92c0,0.33-.06.68-0.12,1s-0.13.71-.21,1.07-0.16.71-.24,1q-0.24,1-.37,1.65c-0.09.46-.16,0.9-0.22,1.33s-0.12.89-.17,1.38-0.13,1.1-.23,1.82c0.2-.43.37-0.79,0.51-1.1l0.39-.8c0.11-.23.22-0.44,0.32-0.62s0.21-.37.32-0.57l0.38-.65,0.52-.86a14.5,14.5,0,0,1,2.61-3.2A9.91,9.91,0,0,1,192,48.38a7,7,0,0,1,2.4-.73,7.35,7.35,0,0,1,1.07.05,6,6,0,0,1,1.2.25,3.49,3.49,0,0,1,1,.48,0.87,0.87,0,0,1,.41.72" transform="translate(-0.13 9.09)"/><path class="cls-1" d="M198,49.15c0,0.07,0,.17,0,0.3a1.62,1.62,0,0,1-.09.39,1.56,1.56,0,0,1-.16.34,0.28,0.28,0,0,1-.25.15h-0.35l-0.51,0-0.51,0h-0.35a8.35,8.35,0,0,0-5.53,2.37,18.12,18.12,0,0,0-3.75,5.65c-0.19.48-.39,1-0.58,1.5s-0.37,1.07-.55,1.64a7.6,7.6,0,0,0-.2.84,4.92,4.92,0,0,1-.2.77,0.51,0.51,0,0,1-.29.26,4.23,4.23,0,0,1-.59.23l-0.62.17a2.17,2.17,0,0,1-.4.07q-1.2.07-1.35-2.42c0-.45,0-0.86,0-1.23s0-.72,0-1.07,0.05-.7.09-1.08,0.08-.8.13-1.28,0.13-1.26.21-2,0.17-1.54.28-2.32,0.21-1.52.33-2.22a16.59,16.59,0,0,1,.37-1.75,2.77,2.77,0,0,1,.53-1.18,1.36,1.36,0,0,1,1-.42,0.89,0.89,0,0,1,.37.09,1.46,1.46,0,0,1,.37.24,1.91,1.91,0,0,1,.28.32,0.76,0.76,0,0,1,.13.3,8.26,8.26,0,0,1,0,.92c0,0.33-.06.68-0.12,1s-0.13.71-.21,1.07-0.16.71-.24,1q-0.24,1-.37,1.65c-0.09.46-.16,0.9-0.22,1.33s-0.12.89-.17,1.38-0.13,1.1-.23,1.82c0.2-.43.37-0.79,0.51-1.1l0.39-.8c0.11-.23.22-0.44,0.32-0.62s0.21-.37.32-0.57l0.38-.65,0.52-.86a14.5,14.5,0,0,1,2.61-3.2A9.91,9.91,0,0,1,192,48.38a7,7,0,0,1,2.4-.73,7.35,7.35,0,0,1,1.07.05,6,6,0,0,1,1.2.25,3.49,3.49,0,0,1,1,.48A0.87,0.87,0,0,1,198,49.15Z" transform="translate(-0.13 9.09)"/><path class="cls-1" d="M218,52.37a11.53,11.53,0,0,1-2.45.24,11.18,11.18,0,0,1-2.66-.33,9,9,0,0,1-2.57-1.09,3.3,3.3,0,0,1,.51,1.13A6.38,6.38,0,0,1,211,53.6a6.83,6.83,0,0,1-.69,2.84,12.79,12.79,0,0,1-4,5,8.44,8.44,0,0,1-1.49.86,10.47,10.47,0,0,1-1.69.59,13.6,13.6,0,0,1-1.84.34,16.76,16.76,0,0,1-1.93.11A2.39,2.39,0,0,1,198,62.9a5.32,5.32,0,0,1-1.15-1,5.43,5.43,0,0,1-.81-1.3,3.15,3.15,0,0,1-.31-1.25,9.15,9.15,0,0,1,.38-2.63,12.64,12.64,0,0,1,1-2.43,19.29,19.29,0,0,1,1.47-2.3c0.56-.75,1.15-1.5,1.77-2.24a11.82,11.82,0,0,1,1.19-1.23,11.32,11.32,0,0,1,1.4-1.07,8.44,8.44,0,0,1,1.48-.77,3.93,3.93,0,0,1,1.43-.3,2.67,2.67,0,0,1,1,.15,2.94,2.94,0,0,1,.76.43,5.69,5.69,0,0,1,.73.7l0.86,0.95A3.36,3.36,0,0,0,210,49a15.26,15.26,0,0,0,1.67.58C213,50,216,49.93,217.31,51A1.66,1.66,0,0,1,218,52.37ZM217.31,51a1.65,1.65,0,0,1,.7,1.39,11.42,11.42,0,0,1-2.45.24,11.18,11.18,0,0,1-2.66-.33,9,9,0,0,1-2.57-1.09,3.3,3.3,0,0,1,.51,1.13A6.38,6.38,0,0,1,211,53.6a6.83,6.83,0,0,1-.69,2.84,12.23,12.23,0,0,1-1.76,2.82,12.39,12.39,0,0,1-2.27,2.16,8.54,8.54,0,0,1-1.49.86,10.61,10.61,0,0,1-1.69.59,13.6,13.6,0,0,1-1.84.34,17.1,17.1,0,0,1-1.93.11A2.39,2.39,0,0,1,198,62.9a5.32,5.32,0,0,1-1.15-1,5.43,5.43,0,0,1-.81-1.3,3.15,3.15,0,0,1-.31-1.25,9.14,9.14,0,0,1,.38-2.63,12.64,12.64,0,0,1,1-2.43,19.28,19.28,0,0,1,1.47-2.3c0.56-.75,1.15-1.5,1.77-2.24a11.68,11.68,0,0,1,1.19-1.23,11.27,11.27,0,0,1,1.4-1.07,8.43,8.43,0,0,1,1.48-.77,3.9,3.9,0,0,1,1.43-.3,2.67,2.67,0,0,1,1,.15,2.94,2.94,0,0,1,.76.43,5.69,5.69,0,0,1,.73.7l0.86,0.95A3.41,3.41,0,0,0,210,49a15.61,15.61,0,0,0,1.67.58C213,50,216,49.93,217.31,51m-8.79,2.63a6,6,0,0,0-.07-1.07,4.64,4.64,0,0,0-.3-1.13,2.42,2.42,0,0,0-.57-0.87,1,1,0,0,0-.88-0.27,7.21,7.21,0,0,1-1.32-.64,1.7,1.7,0,0,0-.8-0.34,1,1,0,0,0-.45.13,2.82,2.82,0,0,0-.5.35,5.67,5.67,0,0,0-.53.52q-0.27.3-.53,0.62l-1,1.2c-0.29.36-.57,0.72-0.83,1.07s-0.51.73-.75,1.12-0.49.82-.73,1.31a3.86,3.86,0,0,0-.28.73c-0.08.28-.15,0.57-0.21,0.87a8.57,8.57,0,0,0-.13.9c0,0.3,0,.56,0,0.8a1.2,1.2,0,0,0,.16.53,3,3,0,0,0,.41.61,2.53,2.53,0,0,0,.57.5,1.17,1.17,0,0,0,.63.2,12.63,12.63,0,0,0,1.51-.08,5.06,5.06,0,0,0,1.16-.27,5.63,5.63,0,0,0,1.07-.53c0.36-.22.78-0.52,1.25-0.88a5.47,5.47,0,0,0,.69-0.59c0.23-.22.45-0.46,0.67-0.72s0.43-.51.62-0.78,0.38-.53.56-0.79a2.49,2.49,0,0,0,.3-0.63,6,6,0,0,0,.19-0.74c0-.25.08-0.47,0.1-0.68S208.52,53.69,208.52,53.6Zm0,0a6,6,0,0,0-.07-1.07,4.64,4.64,0,0,0-.3-1.13,2.42,2.42,0,0,0-.57-0.87,1,1,0,0,0-.88-0.27,7.21,7.21,0,0,1-1.32-.64,1.7,1.7,0,0,0-.8-0.34,1,1,0,0,0-.45.13,2.82,2.82,0,0,0-.5.35,5.67,5.67,0,0,0-.53.52q-0.27.3-.53,0.62l-1,1.2c-0.29.36-.57,0.72-0.83,1.07s-0.51.73-.75,1.12-0.49.82-.73,1.31a3.86,3.86,0,0,0-.28.73c-0.08.28-.15,0.57-0.21,0.87a8.57,8.57,0,0,0-.13.9c0,0.3,0,.56,0,0.8a1.2,1.2,0,0,0,.16.53,3,3,0,0,0,.41.61,2.53,2.53,0,0,0,.57.5,1.17,1.17,0,0,0,.63.2,12.63,12.63,0,0,0,1.51-.08,5.06,5.06,0,0,0,1.16-.27,5.63,5.63,0,0,0,1.07-.53c0.36-.22.78-0.52,1.25-0.88a5.47,5.47,0,0,0,.69-0.59c0.23-.22.45-0.46,0.67-0.72s0.43-.51.62-0.78,0.38-.53.56-0.79a2.49,2.49,0,0,0,.3-0.63,6,6,0,0,0,.19-0.74c0-.25.08-0.47,0.1-0.68S208.52,53.69,208.52,53.6Z" transform="translate(-0.13 9.09)"/></svg>